# xmcd
#
# Track frame offsets:
#	150
#	15050
#	28875
#	44390
#	57127
#	64622
#	73970
#	81690
#	111202
#	122535
#
# Disc length: 2327 seconds
#
# Revision: 0
# Processed by: cddbd v1.4PL0 Copyright (c) Steve Scherf et al.
# Submitted via: EasyCDDAExtractor 4.5.2.1
#
DISCID=8509150a
DTITLE=Billy Holiday - The Best of billie Holiday
DYEAR=1900
DGENRE=
TTITLE0=trav'lin light
TTITLE1=detour ahead
TTITLE2=I cover the waterfront (live)
TTITLE3=my man (live)
TTITLE4=them there eyes (live)
TTITLE5=blue moon (live)
TTITLE6=all of me (live)
TTITLE7=lover come back to me (live)
TTITLE8=what a little moonlight can do (live)
TTITLE9=billie's blues (live)
EXTD=
EXTT0=
EXTT1=
EXTT2=
EXTT3=
EXTT4=
EXTT5=
EXTT6=
EXTT7=
EXTT8=
EXTT9=
PLAYORDER=
